<mxfile host="app.diagrams.net" agent="Mozilla/5.0 (Windows NT 10.0; Win64; x64) AppleWebKit/537.36 (KHTML, like Gecko) Chrome/131.0.0.0 Safari/537.36" version="26.0.6">
  <diagram name="Exemplo-01" id="nJtypKV1HBynNeGjzQdm">
    <mxGraphModel dx="1687" dy="1067" grid="1" gridSize="10" guides="1" tooltips="1" connect="1" arrows="1" fold="1" page="1" pageScale="1" pageWidth="827" pageHeight="1169" math="0" shadow="0">
      <root>
        <mxCell id="0" />
        <mxCell id="1" parent="0" />
        <mxCell id="dohL2B8VOvr3wQrW6hTr-4" value="" style="edgeStyle=orthogonalEdgeStyle;rounded=0;orthogonalLoop=1;jettySize=auto;html=1;" edge="1" parent="1" source="dohL2B8VOvr3wQrW6hTr-1" target="dohL2B8VOvr3wQrW6hTr-3">
          <mxGeometry relative="1" as="geometry" />
        </mxCell>
        <mxCell id="dohL2B8VOvr3wQrW6hTr-1" value="início" style="rounded=1;whiteSpace=wrap;html=1;" vertex="1" parent="1">
          <mxGeometry x="357" y="344" width="80" height="30" as="geometry" />
        </mxCell>
        <mxCell id="dohL2B8VOvr3wQrW6hTr-7" style="edgeStyle=orthogonalEdgeStyle;rounded=0;orthogonalLoop=1;jettySize=auto;html=1;exitX=0.5;exitY=1;exitDx=0;exitDy=0;entryX=0.5;entryY=0;entryDx=0;entryDy=0;" edge="1" parent="1" source="dohL2B8VOvr3wQrW6hTr-2" target="dohL2B8VOvr3wQrW6hTr-6">
          <mxGeometry relative="1" as="geometry" />
        </mxCell>
        <mxCell id="dohL2B8VOvr3wQrW6hTr-2" value="Frente" style="rounded=0;whiteSpace=wrap;html=1;" vertex="1" parent="1">
          <mxGeometry x="339" y="464" width="116" height="40" as="geometry" />
        </mxCell>
        <mxCell id="dohL2B8VOvr3wQrW6hTr-5" style="edgeStyle=orthogonalEdgeStyle;rounded=0;orthogonalLoop=1;jettySize=auto;html=1;exitX=0.5;exitY=1;exitDx=0;exitDy=0;entryX=0.5;entryY=0;entryDx=0;entryDy=0;" edge="1" parent="1" source="dohL2B8VOvr3wQrW6hTr-3" target="dohL2B8VOvr3wQrW6hTr-2">
          <mxGeometry relative="1" as="geometry" />
        </mxCell>
        <mxCell id="dohL2B8VOvr3wQrW6hTr-3" value="Config. IOs" style="shape=parallelogram;perimeter=parallelogramPerimeter;whiteSpace=wrap;html=1;fixedSize=1;" vertex="1" parent="1">
          <mxGeometry x="337" y="404" width="120" height="30" as="geometry" />
        </mxCell>
        <mxCell id="dohL2B8VOvr3wQrW6hTr-11" style="edgeStyle=orthogonalEdgeStyle;rounded=0;orthogonalLoop=1;jettySize=auto;html=1;exitX=0.5;exitY=1;exitDx=0;exitDy=0;entryX=0.5;entryY=0;entryDx=0;entryDy=0;" edge="1" parent="1" source="dohL2B8VOvr3wQrW6hTr-6" target="dohL2B8VOvr3wQrW6hTr-8">
          <mxGeometry relative="1" as="geometry" />
        </mxCell>
        <mxCell id="dohL2B8VOvr3wQrW6hTr-6" value="Ler Sensor" style="rounded=0;whiteSpace=wrap;html=1;" vertex="1" parent="1">
          <mxGeometry x="339" y="544" width="116" height="40" as="geometry" />
        </mxCell>
        <mxCell id="dohL2B8VOvr3wQrW6hTr-9" style="edgeStyle=orthogonalEdgeStyle;rounded=0;orthogonalLoop=1;jettySize=auto;html=1;exitX=1;exitY=0.5;exitDx=0;exitDy=0;" edge="1" parent="1" source="dohL2B8VOvr3wQrW6hTr-8">
          <mxGeometry relative="1" as="geometry">
            <mxPoint x="523" y="724" as="targetPoint" />
          </mxGeometry>
        </mxCell>
        <mxCell id="dohL2B8VOvr3wQrW6hTr-21" style="edgeStyle=orthogonalEdgeStyle;rounded=0;orthogonalLoop=1;jettySize=auto;html=1;exitX=0;exitY=0.5;exitDx=0;exitDy=0;entryX=0.5;entryY=0;entryDx=0;entryDy=0;" edge="1" parent="1" source="dohL2B8VOvr3wQrW6hTr-8" target="dohL2B8VOvr3wQrW6hTr-22">
          <mxGeometry relative="1" as="geometry">
            <mxPoint x="253" y="704" as="targetPoint" />
          </mxGeometry>
        </mxCell>
        <mxCell id="dohL2B8VOvr3wQrW6hTr-8" value="Obstaculo?&lt;div&gt;Right&lt;/div&gt;" style="rhombus;whiteSpace=wrap;html=1;" vertex="1" parent="1">
          <mxGeometry x="333" y="614" width="120" height="70" as="geometry" />
        </mxCell>
        <mxCell id="dohL2B8VOvr3wQrW6hTr-15" style="edgeStyle=orthogonalEdgeStyle;rounded=0;orthogonalLoop=1;jettySize=auto;html=1;exitX=1;exitY=0.5;exitDx=0;exitDy=0;entryX=1;entryY=0.5;entryDx=0;entryDy=0;" edge="1" parent="1" source="dohL2B8VOvr3wQrW6hTr-10" target="dohL2B8VOvr3wQrW6hTr-2">
          <mxGeometry relative="1" as="geometry">
            <mxPoint x="663" y="404" as="targetPoint" />
            <Array as="points">
              <mxPoint x="663" y="759" />
              <mxPoint x="663" y="484" />
            </Array>
          </mxGeometry>
        </mxCell>
        <mxCell id="dohL2B8VOvr3wQrW6hTr-24" style="edgeStyle=orthogonalEdgeStyle;rounded=0;orthogonalLoop=1;jettySize=auto;html=1;exitX=0;exitY=0.5;exitDx=0;exitDy=0;entryX=0.5;entryY=0;entryDx=0;entryDy=0;" edge="1" parent="1" source="dohL2B8VOvr3wQrW6hTr-10" target="dohL2B8VOvr3wQrW6hTr-23">
          <mxGeometry relative="1" as="geometry" />
        </mxCell>
        <mxCell id="dohL2B8VOvr3wQrW6hTr-10" value="Obstaculo?&lt;div&gt;Left&lt;/div&gt;" style="rhombus;whiteSpace=wrap;html=1;" vertex="1" parent="1">
          <mxGeometry x="463" y="724" width="120" height="70" as="geometry" />
        </mxCell>
        <mxCell id="dohL2B8VOvr3wQrW6hTr-12" value="Não" style="text;html=1;align=center;verticalAlign=middle;whiteSpace=wrap;rounded=0;" vertex="1" parent="1">
          <mxGeometry x="443" y="624" width="60" height="30" as="geometry" />
        </mxCell>
        <mxCell id="dohL2B8VOvr3wQrW6hTr-14" value="Sim" style="text;html=1;align=center;verticalAlign=middle;whiteSpace=wrap;rounded=0;" vertex="1" parent="1">
          <mxGeometry x="283" y="624" width="60" height="30" as="geometry" />
        </mxCell>
        <mxCell id="dohL2B8VOvr3wQrW6hTr-16" value="Não" style="text;html=1;align=center;verticalAlign=middle;whiteSpace=wrap;rounded=0;" vertex="1" parent="1">
          <mxGeometry x="573" y="734" width="60" height="30" as="geometry" />
        </mxCell>
        <mxCell id="dohL2B8VOvr3wQrW6hTr-25" style="edgeStyle=orthogonalEdgeStyle;rounded=0;orthogonalLoop=1;jettySize=auto;html=1;exitX=0.5;exitY=1;exitDx=0;exitDy=0;entryX=0;entryY=0.5;entryDx=0;entryDy=0;" edge="1" parent="1" source="dohL2B8VOvr3wQrW6hTr-22" target="dohL2B8VOvr3wQrW6hTr-2">
          <mxGeometry relative="1" as="geometry">
            <mxPoint x="153" y="474" as="targetPoint" />
            <Array as="points">
              <mxPoint x="273" y="764" />
              <mxPoint x="163" y="764" />
              <mxPoint x="163" y="484" />
            </Array>
          </mxGeometry>
        </mxCell>
        <mxCell id="dohL2B8VOvr3wQrW6hTr-22" value="Desvio Esq." style="rounded=0;whiteSpace=wrap;html=1;" vertex="1" parent="1">
          <mxGeometry x="233" y="714" width="80" height="30" as="geometry" />
        </mxCell>
        <mxCell id="dohL2B8VOvr3wQrW6hTr-26" style="edgeStyle=orthogonalEdgeStyle;rounded=0;orthogonalLoop=1;jettySize=auto;html=1;exitX=0;exitY=0.5;exitDx=0;exitDy=0;" edge="1" parent="1" source="dohL2B8VOvr3wQrW6hTr-23">
          <mxGeometry relative="1" as="geometry">
            <mxPoint x="163" y="764" as="targetPoint" />
          </mxGeometry>
        </mxCell>
        <mxCell id="dohL2B8VOvr3wQrW6hTr-23" value="Desvio Dir." style="rounded=0;whiteSpace=wrap;html=1;" vertex="1" parent="1">
          <mxGeometry x="363" y="794" width="80" height="30" as="geometry" />
        </mxCell>
        <mxCell id="dohL2B8VOvr3wQrW6hTr-27" value="Sim" style="text;html=1;align=center;verticalAlign=middle;whiteSpace=wrap;rounded=0;" vertex="1" parent="1">
          <mxGeometry x="403" y="734" width="60" height="30" as="geometry" />
        </mxCell>
      </root>
    </mxGraphModel>
  </diagram>
</mxfile>
